# File created by Blade
# Date/Time:  Wed Jan 21 14:58:10 2015
# Frame Rate: 120.000 fps
#------------------------------------------------------
:FULLY-SPECIFIED
:DEGREES
1037
root 17.752142 35.362492 -22.886480 -172.175020 6.274456 -177.765643
Spine -17.552007 2.273437 1.278449
Head 10.775558 -0.903818 0.387665
LeftShoulder -11.092403 -31.095577 20.139889
LeftArm -5.031204 3.280929 -9.099472
LeftForeArm 10.219627 -0.000000 -3.270413
LeftHand -12.176888 -0.000000 -0.990133
LeftHandThumb1 -26.253704 0.000000 33.147579
RightShoulder -13.029291 -3.190508 -13.301143
RightArm 5.507031 37.010947 12.555173
RightForeArm -35.054053 -0.000000 4.039866
RightHand -6.052823 0.000000 6.486742
RightHandThumb1 -24.326973 -0.000000 -32.862282
LeftUpLeg 1.751886 15.884892 5.133498
LeftLeg -6.092089 -0.000000 0.000000
LeftFoot -21.120835 28.244698 -14.645737
LeftToeBase 25.956621 -0.000000 -0.000000
RightUpLeg -2.068136 -1.580135 -2.221594
RightLeg -2.642728 -0.000000 0.000000
RightFoot -18.577177 -15.664384 16.308027
RightToeBase 23.085871 -0.000000 -0.000000
1038
root 17.750048 35.363139 -22.878675 -172.165002 6.197378 -177.779751
Spine -17.567660 2.327598 1.253593
Head 10.785571 -0.895531 0.376679
LeftShoulder -11.005335 -31.105814 20.060033
LeftArm -5.084995 3.398018 -9.112718
LeftForeArm 10.165587 -0.000000 -3.227050
LeftHand -12.072813 -0.000000 -0.986474
LeftHandThumb1 -26.253704 0.000000 33.147579
RightShoulder -13.021192 -3.163804 -13.300462
RightArm 5.453037 36.974043 12.533576
RightForeArm -35.082205 -0.000000 4.063327
RightHand -6.088334 -0.000000 6.430710
RightHandThumb1 -24.326973 -0.000000 -32.862282
LeftUpLeg 1.717373 15.846351 5.113998
LeftLeg -6.112948 -0.000000 0.000000
LeftFoot -21.085800 28.227555 -14.627517
LeftToeBase 26.036784 -0.000000 -0.000000
RightUpLeg -2.068155 -1.629121 -2.228517
RightLeg -2.665572 -0.000000 0.000000
RightFoot -18.578427 -15.691540 16.317855
RightToeBase 23.109881 -0.000000 -0.000000
1039
root 17.747187 35.363908 -22.870720 -172.157442 6.111607 -177.804043
Spine -17.566404 2.343749 1.227798
Head 10.719660 -0.851838 0.418934
LeftShoulder -10.983646 -31.104500 20.018492
LeftArm -5.145473 3.499485 -9.163832
LeftForeArm 10.116761 -0.000000 -3.088882
LeftHand -12.209515 -0.000000 -0.921104
LeftHandThumb1 -26.253704 0.000000 33.147579
RightShoulder -12.988406 -3.193586 -13.269423
RightArm 5.398464 36.967878 12.509675
RightForeArm -35.066261 -0.000000 4.108543
RightHand -6.096271 0.000000 6.334494
RightHandThumb1 -24.326973 -0.000000 -32.862282
LeftUpLeg 1.681104 15.805575 5.088446
LeftLeg -6.122167 -0.000000 0.000000
LeftFoot -21.037690 28.166324 -14.607075
LeftToeBase 25.995531 -0.000000 -0.000000
RightUpLeg -2.055576 -1.701519 -2.242878
RightLeg -2.712362 -0.000000 0.000000
RightFoot -18.577385 -15.699318 16.311373
RightToeBase 23.321415 -0.000000 -0.000000
1040
root 17.743769 35.364547 -22.861621 -172.137767 6.029928 -177.814839
Spine -17.581076 2.378083 1.221613
Head 10.700683 -0.812367 0.414265
LeftShoulder -10.943848 -31.094830 19.942969
LeftArm -5.173334 3.703563 -9.230372
LeftForeArm 10.107464 -0.000000 -3.026128
LeftHand -12.151649 -0.000000 -0.837695
LeftHandThumb1 -26.253704 0.000000 33.147579
RightShoulder -12.957212 -3.122105 -13.273024
RightArm 5.291861 36.829078 12.471014
RightForeArm -34.965976 -0.000000 4.213362
RightHand -6.205219 0.000000 6.278450
RightHandThumb1 -24.326973 -0.000000 -32.862282
LeftUpLeg 1.631828 15.754517 5.069960
LeftLeg -6.136019 -0.000000 0.000000
LeftFoot -20.999845 28.150547 -14.580974
LeftToeBase 25.972767 -0.000000 -0.000000
RightUpLeg -2.065275 -1.742982 -2.247005
RightLeg -2.735113 -0.000000 0.000000
RightFoot -18.557800 -15.755159 16.329210
RightToeBase 23.213319 -0.000000 -0.000000
